<svg xmlns="http://www.w3.org/2000/svg" version="1.1" xmlns:xlink="http://www.w3.org/1999/xlink" width="500" height="500"><svg xmlns="http://www.w3.org/2000/svg" xmlns:xlink="http://www.w3.org/1999/xlink" width="500" zoomAndPan="magnify" viewBox="0 0 375 374.999991" height="500" preserveAspectRatio="xMidYMid meet" version="1.2"><defs><clipPath id="SvgjsClipPath1011"><path d="M 85.511719 53.082031 L 289.824219 53.082031 L 289.824219 321.917969 L 85.511719 321.917969 Z M 85.511719 53.082031 "></path></clipPath><clipPath id="SvgjsClipPath1010"><path d="M 105.890625 127.183594 L 268.535156 127.183594 L 268.535156 177.660156 L 105.890625 177.660156 Z M 105.890625 127.183594 "></path></clipPath><clipPath id="SvgjsClipPath1009"><path d="M 126 160 L 150 160 L 150 183.636719 L 126 183.636719 Z M 126 160 "></path></clipPath><clipPath id="SvgjsClipPath1008"><path d="M 224 160 L 248 160 L 248 183.636719 L 224 183.636719 Z M 224 160 "></path></clipPath><clipPath id="SvgjsClipPath1007"><path d="M 110.464844 130.363281 L 264.519531 130.363281 L 264.519531 178.175781 L 110.464844 178.175781 Z M 110.464844 130.363281 "></path></clipPath></defs><g id="SvgjsG1006"><rect x="0" width="375" y="0" height="374.999991" style="fill:#ffffff;fill-opacity:1;stroke:none;"></rect><rect x="0" width="375" y="0" height="374.999991" style="fill:#2f27ce;fill-opacity:1;stroke:none;"></rect><g clip-rule="nonzero" clip-path="url(#6d2d7bff83)"><path style=" stroke:none;fill-rule:nonzero;fill:#fbfbfe;fill-opacity:1;" d="M 289.285156 154.660156 C 289.183594 98.46875 243.539062 52.992188 187.347656 53.097656 C 131.15625 53.210938 85.691406 98.851562 85.789062 155.042969 C 85.828125 174.53125 91.722656 192.492188 100.871094 208.171875 C 121.539062 243.59375 187.855469 321.84375 187.855469 321.84375 C 187.855469 321.84375 254.789062 242.183594 275.164062 206.574219 C 283.9375 191.230469 289.328125 173.609375 289.285156 154.660156 Z M 187.390625 76.597656 C 230.617188 76.511719 265.710938 111.488281 265.796875 154.703125 C 265.875 197.917969 230.914062 233.027344 187.679688 233.113281 C 144.472656 233.183594 109.371094 198.21875 109.289062 155 C 109.203125 111.78125 144.167969 76.675781 187.390625 76.597656 Z M 187.390625 76.597656 "></path></g><g clip-rule="nonzero" clip-path="url(#a8625a9ef4)"><path style=" stroke:none;fill-rule:nonzero;fill:#2f27ce;fill-opacity:1;" d="M 214.03125 146.496094 L 180.960938 146.496094 C 180.445312 146.496094 180.027344 146.078125 180.027344 145.5625 L 180.027344 132.386719 C 180.027344 131.859375 180.464844 131.433594 180.992188 131.453125 C 189.375 131.730469 197.722656 133.320312 204.8125 138.085938 C 208.253906 140.402344 211.082031 143.417969 214.148438 146.179688 C 214.273438 146.289062 214.195312 146.496094 214.03125 146.496094 Z M 175.191406 145.5625 C 175.191406 146.078125 174.773438 146.496094 174.257812 146.496094 C 170.355469 146.496094 166.960938 146.492188 162.972656 146.496094 C 159.78125 146.496094 156.585938 146.476562 153.398438 146.257812 C 150.425781 146.054688 147.199219 145.886719 144.5 144.488281 C 143.292969 143.863281 142.160156 142.566406 143.222656 141.277344 C 143.230469 141.265625 143.242188 141.253906 143.253906 141.242188 C 151.269531 132.628906 163.191406 131.78125 174.230469 131.472656 C 174.757812 131.460938 175.191406 131.882812 175.191406 132.40625 Z M 268.488281 163.46875 C 268.453125 162.972656 268.039062 162.582031 267.539062 162.578125 C 267.109375 162.574219 266.757812 162.246094 266.757812 161.816406 L 266.757812 161.058594 C 266.757812 157.933594 265.804688 156.582031 265.597656 156.328125 C 265.5625 156.285156 265.53125 156.238281 265.5 156.195312 C 261.292969 150.164062 227.546875 144.894531 222.796875 144.179688 C 222.429688 144.125 222.078125 143.996094 221.761719 143.796875 C 217.1875 140.925781 212.757812 137.273438 208.296875 134.242188 C 204.199219 131.460938 198.75 129.394531 193.859375 128.542969 C 186.503906 127.261719 179.007812 127.0625 171.558594 127.242188 C 164.210938 127.414062 156.8125 127.46875 149.613281 129.132812 C 142.847656 130.695312 136.769531 134.351562 130.539062 137.359375 C 128.722656 138.238281 126.921875 139.152344 125.136719 140.09375 C 123.867188 140.761719 122.609375 141.441406 121.363281 142.148438 C 121.027344 142.339844 120.65625 142.4375 120.273438 142.4375 L 113.875 142.4375 C 106.765625 142.4375 107.398438 155.683594 107.746094 159.648438 C 107.808594 160.347656 107.542969 161.039062 107.03125 161.519531 L 107.03125 161.523438 C 106.230469 162.257812 105.816406 163.320312 105.902344 164.40625 C 107.039062 178.433594 121.65625 177.648438 123.59375 177.484375 C 122.894531 175.703125 122.539062 173.820312 122.539062 171.886719 C 122.539062 169.820312 122.945312 167.8125 123.746094 165.921875 C 124.515625 164.097656 125.621094 162.457031 127.027344 161.050781 C 128.433594 159.644531 130.070312 158.539062 131.894531 157.769531 C 133.789062 156.96875 135.792969 156.5625 137.863281 156.5625 C 139.929688 156.5625 141.9375 156.96875 143.828125 157.769531 C 145.652344 158.539062 147.289062 159.644531 148.695312 161.050781 C 150.101562 162.457031 151.207031 164.097656 151.980469 165.921875 C 152.777344 167.8125 153.183594 169.820312 153.183594 171.886719 C 153.183594 173.820312 152.832031 175.699219 152.128906 177.480469 L 221.863281 177.527344 C 221.148438 175.730469 220.789062 173.835938 220.789062 171.886719 C 220.789062 169.820312 221.195312 167.8125 221.996094 165.921875 C 222.769531 164.097656 223.871094 162.457031 225.277344 161.050781 C 226.683594 159.644531 228.324219 158.539062 230.148438 157.769531 C 232.039062 156.96875 234.046875 156.5625 236.113281 156.5625 C 238.179688 156.5625 240.1875 156.96875 242.078125 157.769531 C 243.902344 158.539062 245.542969 159.644531 246.949219 161.050781 C 248.355469 162.457031 249.460938 164.097656 250.230469 165.921875 C 251.03125 167.8125 251.4375 169.820312 251.4375 171.886719 C 251.4375 173.839844 251.074219 175.742188 250.355469 177.542969 L 257.679688 177.546875 C 262.300781 177.546875 264.410156 175.484375 264.800781 175.054688 C 264.871094 174.976562 264.941406 174.898438 265.015625 174.824219 C 268.632812 171.066406 268.640625 165.597656 268.488281 163.46875 "></path></g><g clip-rule="nonzero" clip-path="url(#7f75c3b13d)"><path style=" stroke:none;fill-rule:nonzero;fill:#2f27ce;fill-opacity:1;" d="M 137.863281 160.136719 C 131.371094 160.136719 126.109375 165.398438 126.109375 171.886719 C 126.109375 178.367188 131.382812 183.636719 137.863281 183.636719 C 144.351562 183.636719 149.613281 178.375 149.613281 171.886719 C 149.613281 165.40625 144.339844 160.136719 137.863281 160.136719 "></path></g><g clip-rule="nonzero" clip-path="url(#b1c94b5a3b)"><path style=" stroke:none;fill-rule:nonzero;fill:#2f27ce;fill-opacity:1;" d="M 236.113281 160.136719 C 229.625 160.136719 224.363281 165.398438 224.359375 171.886719 C 224.359375 178.367188 229.632812 183.636719 236.113281 183.636719 C 242.601562 183.636719 247.863281 178.375 247.863281 171.886719 C 247.863281 165.40625 242.59375 160.136719 236.113281 160.136719 "></path></g><g clip-rule="nonzero" clip-path="url(#23c477be9b)"><path style=" stroke:none;fill-rule:nonzero;fill:#fbfbfe;fill-opacity:1;" d="M 212.890625 148.65625 L 181.570312 148.65625 C 181.082031 148.65625 180.6875 148.261719 180.6875 147.773438 L 180.6875 135.292969 C 180.6875 134.792969 181.097656 134.390625 181.597656 134.410156 C 189.539062 134.671875 197.445312 136.179688 204.164062 140.691406 C 207.421875 142.882812 210.101562 145.742188 213.003906 148.359375 C 213.121094 148.460938 213.046875 148.65625 212.890625 148.65625 Z M 176.101562 147.773438 C 176.101562 148.261719 175.707031 148.65625 175.21875 148.65625 C 171.523438 148.65625 168.308594 148.65625 164.53125 148.65625 C 161.507812 148.65625 158.484375 148.636719 155.464844 148.429688 C 152.648438 148.238281 149.59375 148.078125 147.035156 146.753906 C 145.890625 146.160156 144.816406 144.9375 145.824219 143.714844 C 145.832031 143.703125 145.84375 143.691406 145.855469 143.679688 C 153.445312 135.523438 164.738281 134.722656 175.195312 134.429688 C 175.691406 134.414062 176.101562 134.816406 176.101562 135.3125 Z M 264.472656 164.734375 C 264.4375 164.261719 264.046875 163.894531 263.574219 163.890625 C 263.167969 163.886719 262.835938 163.574219 262.835938 163.167969 L 262.835938 162.449219 C 262.835938 159.488281 261.933594 158.210938 261.738281 157.96875 C 261.703125 157.929688 261.675781 157.886719 261.644531 157.84375 C 257.65625 152.132812 225.691406 147.140625 221.195312 146.464844 C 220.847656 146.410156 220.511719 146.289062 220.214844 146.101562 C 215.882812 143.382812 211.6875 139.921875 207.460938 137.050781 C 203.578125 134.414062 198.421875 132.457031 193.785156 131.652344 C 186.820312 130.441406 179.71875 130.25 172.664062 130.417969 C 165.703125 130.585938 158.699219 130.636719 151.878906 132.210938 C 145.472656 133.691406 139.710938 137.152344 133.8125 140.003906 C 132.089844 140.835938 130.386719 141.703125 128.695312 142.589844 C 127.492188 143.222656 126.300781 143.871094 125.117188 144.539062 C 124.804688 144.71875 124.449219 144.8125 124.085938 144.8125 L 118.027344 144.8125 C 111.292969 144.8125 111.894531 157.359375 112.222656 161.113281 C 112.28125 161.777344 112.03125 162.429688 111.546875 162.886719 L 111.546875 162.890625 C 110.789062 163.585938 110.394531 164.59375 110.476562 165.621094 C 111.554688 178.90625 125.398438 178.164062 127.234375 178.007812 C 126.570312 176.320312 126.234375 174.539062 126.234375 172.707031 C 126.234375 170.75 126.617188 168.847656 127.375 167.054688 C 128.105469 165.328125 129.152344 163.777344 130.484375 162.445312 C 131.816406 161.113281 133.371094 160.066406 135.097656 159.335938 C 136.886719 158.578125 138.789062 158.191406 140.746094 158.191406 C 142.707031 158.191406 144.605469 158.578125 146.398438 159.335938 C 148.125 160.066406 149.679688 161.113281 151.007812 162.445312 C 152.339844 163.777344 153.386719 165.328125 154.121094 167.054688 C 154.875 168.847656 155.261719 170.75 155.261719 172.707031 C 155.261719 174.539062 154.925781 176.316406 154.261719 178.007812 L 220.308594 178.046875 C 219.636719 176.347656 219.292969 174.550781 219.292969 172.707031 C 219.292969 170.75 219.679688 168.847656 220.4375 167.054688 C 221.167969 165.328125 222.214844 163.777344 223.546875 162.445312 C 224.878906 161.113281 226.429688 160.066406 228.15625 159.335938 C 229.949219 158.578125 231.851562 158.191406 233.808594 158.191406 C 235.765625 158.191406 237.667969 158.578125 239.457031 159.335938 C 241.1875 160.066406 242.738281 161.113281 244.070312 162.445312 C 245.402344 163.777344 246.449219 165.328125 247.179688 167.054688 C 247.9375 168.847656 248.320312 170.75 248.320312 172.707031 C 248.320312 174.558594 247.976562 176.359375 247.300781 178.066406 L 254.234375 178.070312 C 258.613281 178.070312 260.613281 176.113281 260.980469 175.707031 C 261.046875 175.632812 261.113281 175.5625 261.183594 175.488281 C 264.609375 171.929688 264.621094 166.75 264.472656 164.734375 "></path></g><path style=" stroke:none;fill-rule:nonzero;fill:#fbfbfe;fill-opacity:1;" d="M 140.746094 161.574219 C 134.601562 161.574219 129.617188 166.558594 129.617188 172.707031 C 129.617188 178.84375 134.609375 183.835938 140.746094 183.835938 C 146.894531 183.835938 151.878906 178.855469 151.878906 172.707031 C 151.878906 166.570312 146.886719 161.574219 140.746094 161.574219 "></path><path style=" stroke:none;fill-rule:nonzero;fill:#fbfbfe;fill-opacity:1;" d="M 233.808594 161.574219 C 227.660156 161.574219 222.679688 166.558594 222.675781 172.707031 C 222.675781 178.84375 227.671875 183.835938 233.808594 183.835938 C 239.957031 183.835938 244.9375 178.855469 244.9375 172.707031 C 244.9375 166.570312 239.945312 161.574219 233.808594 161.574219 "></path></g></svg><style>@media (prefers-color-scheme: light) { :root { filter: none; } }
@media (prefers-color-scheme: dark) { :root { filter: none; } }
</style></svg>