<svg xmlns="http://www.w3.org/2000/svg" xmlns:xlink="http://www.w3.org/1999/xlink" width="376" zoomAndPan="magnify" viewBox="0 0 282 89.999999" height="120" preserveAspectRatio="xMidYMid meet" version="1.2"><defs><clipPath id="0e9773dac8"><path d="M 0 0 L 68 0 L 68 89.476562 L 0 89.476562 Z M 0 0 "/></clipPath><clipPath id="32230d7d15"><path d="M 6.785156 24.664062 L 60.917969 24.664062 L 60.917969 41.464844 L 6.785156 41.464844 Z M 6.785156 24.664062 "/></clipPath><clipPath id="052832811a"><path d="M 13 35 L 22 35 L 22 43.453125 L 13 43.453125 Z M 13 35 "/></clipPath><clipPath id="ce7a23ac20"><path d="M 46 35 L 55 35 L 55 43.453125 L 46 43.453125 Z M 46 35 "/></clipPath><clipPath id="bd38ed1816"><path d="M 8.304688 25.722656 L 59.582031 25.722656 L 59.582031 41.636719 L 8.304688 41.636719 Z M 8.304688 25.722656 "/></clipPath><clipPath id="15fd0dcd6c"><path d="M 14 36 L 23 36 L 23 43.617188 L 14 43.617188 Z M 14 36 "/></clipPath><clipPath id="b95a7ff07d"><path d="M 45 36 L 54 36 L 54 43.617188 L 45 43.617188 Z M 45 36 "/></clipPath></defs><g id="fb3e3ca467"><g clip-rule="nonzero" clip-path="url(#0e9773dac8)"><path style=" stroke:none;fill-rule:nonzero;fill:#2f27ce;fill-opacity:1;" d="M 67.824219 33.808594 C 67.789062 15.105469 52.597656 -0.03125 33.894531 0.00390625 C 15.191406 0.0429688 0.0585938 15.234375 0.09375 33.9375 C 0.105469 40.421875 2.066406 46.398438 5.113281 51.621094 C 11.992188 63.410156 34.066406 89.453125 34.066406 89.453125 C 34.066406 89.453125 56.34375 62.941406 63.125 51.089844 C 66.042969 45.980469 67.839844 40.117188 67.824219 33.808594 Z M 33.910156 7.828125 C 48.296875 7.796875 59.976562 19.4375 60.003906 33.824219 C 60.03125 48.207031 48.394531 59.890625 34.007812 59.921875 C 19.625 59.945312 7.941406 48.304688 7.914062 33.921875 C 7.886719 19.539062 19.523438 7.851562 33.910156 7.828125 Z M 33.910156 7.828125 "/></g><g clip-rule="nonzero" clip-path="url(#32230d7d15)"><path style=" stroke:none;fill-rule:nonzero;fill:#ffffff;fill-opacity:1;" d="M 42.777344 31.089844 L 31.769531 31.089844 C 31.597656 31.089844 31.457031 30.953125 31.457031 30.78125 L 31.457031 26.394531 C 31.457031 26.21875 31.605469 26.078125 31.78125 26.085938 C 34.570312 26.175781 37.347656 26.707031 39.707031 28.292969 C 40.855469 29.0625 41.796875 30.066406 42.816406 30.984375 C 42.855469 31.023438 42.832031 31.089844 42.777344 31.089844 Z M 29.847656 30.78125 C 29.847656 30.953125 29.710938 31.089844 29.539062 31.089844 C 28.238281 31.089844 27.109375 31.089844 25.78125 31.089844 C 24.71875 31.089844 23.65625 31.085938 22.597656 31.011719 C 21.605469 30.945312 20.53125 30.886719 19.632812 30.421875 C 19.230469 30.214844 18.855469 29.785156 19.207031 29.355469 C 19.210938 29.351562 19.214844 29.347656 19.21875 29.34375 C 21.886719 26.476562 25.855469 26.195312 29.53125 26.089844 C 29.703125 26.085938 29.847656 26.226562 29.847656 26.402344 Z M 60.902344 36.742188 C 60.890625 36.574219 60.753906 36.445312 60.585938 36.445312 C 60.445312 36.441406 60.328125 36.332031 60.328125 36.191406 L 60.328125 35.9375 C 60.328125 34.898438 60.007812 34.449219 59.941406 34.363281 C 59.929688 34.351562 59.917969 34.335938 59.90625 34.320312 C 58.507812 32.3125 47.273438 30.558594 45.695312 30.320312 C 45.570312 30.300781 45.453125 30.257812 45.351562 30.191406 C 43.828125 29.238281 42.351562 28.019531 40.867188 27.011719 C 39.503906 26.085938 37.691406 25.398438 36.0625 25.117188 C 33.613281 24.691406 31.121094 24.621094 28.640625 24.683594 C 26.195312 24.742188 23.734375 24.757812 21.335938 25.3125 C 19.085938 25.832031 17.058594 27.050781 14.988281 28.050781 C 14.382812 28.34375 13.785156 28.648438 13.1875 28.960938 C 12.765625 29.183594 12.347656 29.410156 11.933594 29.644531 C 11.820312 29.707031 11.695312 29.742188 11.570312 29.742188 L 9.441406 29.742188 C 7.074219 29.742188 7.285156 34.148438 7.402344 35.46875 C 7.421875 35.703125 7.332031 35.929688 7.164062 36.09375 C 6.898438 36.335938 6.757812 36.691406 6.789062 37.050781 C 7.164062 41.722656 12.03125 41.460938 12.675781 41.40625 C 12.441406 40.8125 12.324219 40.1875 12.324219 39.542969 C 12.324219 38.855469 12.460938 38.1875 12.726562 37.558594 C 12.980469 36.949219 13.351562 36.40625 13.816406 35.9375 C 14.285156 35.46875 14.832031 35.101562 15.4375 34.84375 C 16.066406 34.578125 16.734375 34.441406 17.425781 34.441406 C 18.113281 34.441406 18.78125 34.578125 19.410156 34.84375 C 20.015625 35.101562 20.5625 35.46875 21.03125 35.9375 C 21.5 36.40625 21.867188 36.949219 22.125 37.558594 C 22.390625 38.1875 22.523438 38.855469 22.523438 39.542969 C 22.523438 40.1875 22.40625 40.8125 22.171875 41.40625 L 45.382812 41.417969 C 45.144531 40.820312 45.027344 40.191406 45.027344 39.542969 C 45.027344 38.855469 45.160156 38.1875 45.425781 37.558594 C 45.683594 36.949219 46.050781 36.40625 46.519531 35.9375 C 46.988281 35.46875 47.53125 35.101562 48.140625 34.84375 C 48.769531 34.578125 49.4375 34.441406 50.125 34.441406 C 50.8125 34.441406 51.480469 34.578125 52.113281 34.84375 C 52.71875 35.101562 53.265625 35.46875 53.734375 35.9375 C 54.199219 36.40625 54.570312 36.949219 54.824219 37.558594 C 55.089844 38.1875 55.226562 38.855469 55.226562 39.542969 C 55.226562 40.191406 55.105469 40.824219 54.867188 41.425781 L 57.304688 41.425781 C 58.84375 41.425781 59.542969 40.738281 59.675781 40.597656 C 59.699219 40.570312 59.722656 40.546875 59.746094 40.519531 C 60.949219 39.269531 60.953125 37.449219 60.902344 36.742188 "/></g><g clip-rule="nonzero" clip-path="url(#052832811a)"><path style=" stroke:none;fill-rule:nonzero;fill:#ffffff;fill-opacity:1;" d="M 17.425781 35.632812 C 15.265625 35.632812 13.511719 37.382812 13.511719 39.542969 C 13.511719 41.699219 15.269531 43.453125 17.425781 43.453125 C 19.585938 43.453125 21.335938 41.703125 21.335938 39.542969 C 21.335938 37.386719 19.582031 35.632812 17.425781 35.632812 "/></g><g clip-rule="nonzero" clip-path="url(#ce7a23ac20)"><path style=" stroke:none;fill-rule:nonzero;fill:#ffffff;fill-opacity:1;" d="M 50.125 35.632812 C 47.964844 35.632812 46.214844 37.382812 46.214844 39.542969 C 46.214844 41.699219 47.96875 43.453125 50.125 43.453125 C 52.285156 43.453125 54.039062 41.703125 54.039062 39.542969 C 54.039062 37.386719 52.28125 35.632812 50.125 35.632812 "/></g><g clip-rule="nonzero" clip-path="url(#bd38ed1816)"><path style=" stroke:none;fill-rule:nonzero;fill:#2f27ce;fill-opacity:1;" d="M 42.398438 31.808594 L 31.972656 31.808594 C 31.808594 31.808594 31.679688 31.679688 31.679688 31.515625 L 31.679688 27.363281 C 31.679688 27.195312 31.816406 27.0625 31.980469 27.066406 C 34.625 27.15625 37.257812 27.65625 39.492188 29.160156 C 40.578125 29.890625 41.46875 30.839844 42.433594 31.710938 C 42.472656 31.746094 42.449219 31.808594 42.398438 31.808594 Z M 30.152344 31.515625 C 30.152344 31.679688 30.019531 31.808594 29.859375 31.808594 C 28.628906 31.808594 27.558594 31.808594 26.300781 31.808594 C 25.292969 31.808594 24.289062 31.804688 23.285156 31.734375 C 22.34375 31.671875 21.328125 31.617188 20.476562 31.175781 C 20.097656 30.980469 19.738281 30.570312 20.074219 30.167969 C 20.078125 30.160156 20.082031 30.15625 20.085938 30.152344 C 22.613281 27.4375 26.371094 27.171875 29.851562 27.074219 C 30.015625 27.070312 30.152344 27.203125 30.152344 27.371094 Z M 59.566406 37.160156 C 59.554688 37.003906 59.425781 36.882812 59.265625 36.878906 C 59.132812 36.878906 59.019531 36.777344 59.019531 36.640625 L 59.019531 36.402344 C 59.019531 35.417969 58.71875 34.992188 58.65625 34.910156 C 58.644531 34.898438 58.632812 34.882812 58.625 34.867188 C 57.296875 32.96875 46.65625 31.304688 45.160156 31.082031 C 45.046875 31.0625 44.933594 31.023438 44.835938 30.960938 C 43.390625 30.054688 41.996094 28.902344 40.589844 27.949219 C 39.296875 27.070312 37.582031 26.417969 36.039062 26.152344 C 33.71875 25.746094 31.355469 25.683594 29.007812 25.742188 C 26.691406 25.796875 24.359375 25.8125 22.089844 26.335938 C 19.957031 26.828125 18.039062 27.980469 16.078125 28.929688 C 15.503906 29.207031 14.9375 29.496094 14.371094 29.792969 C 13.972656 30.003906 13.574219 30.21875 13.183594 30.441406 C 13.078125 30.5 12.960938 30.53125 12.839844 30.53125 L 10.824219 30.53125 C 8.582031 30.53125 8.78125 34.707031 8.890625 35.957031 C 8.910156 36.179688 8.828125 36.394531 8.664062 36.546875 C 8.414062 36.78125 8.28125 37.113281 8.308594 37.457031 C 8.667969 41.878906 13.277344 41.632812 13.886719 41.578125 C 13.664062 41.019531 13.554688 40.425781 13.554688 39.816406 C 13.554688 39.164062 13.683594 38.53125 13.933594 37.933594 C 14.175781 37.359375 14.527344 36.84375 14.96875 36.398438 C 15.414062 35.957031 15.929688 35.609375 16.503906 35.363281 C 17.101562 35.113281 17.734375 34.984375 18.386719 34.984375 C 19.035156 34.984375 19.667969 35.113281 20.265625 35.363281 C 20.839844 35.609375 21.355469 35.957031 21.800781 36.398438 C 22.242188 36.84375 22.59375 37.359375 22.835938 37.933594 C 23.085938 38.53125 23.214844 39.164062 23.214844 39.816406 C 23.214844 40.425781 23.105469 41.015625 22.882812 41.578125 L 44.867188 41.59375 C 44.640625 41.027344 44.527344 40.429688 44.527344 39.816406 C 44.527344 39.164062 44.65625 38.53125 44.90625 37.933594 C 45.152344 37.359375 45.5 36.84375 45.941406 36.398438 C 46.386719 35.957031 46.902344 35.609375 47.476562 35.363281 C 48.074219 35.113281 48.707031 34.984375 49.359375 34.984375 C 50.011719 34.984375 50.644531 35.113281 51.238281 35.363281 C 51.816406 35.609375 52.332031 35.957031 52.773438 36.398438 C 53.21875 36.84375 53.566406 37.359375 53.808594 37.933594 C 54.0625 38.53125 54.191406 39.164062 54.191406 39.816406 C 54.191406 40.433594 54.074219 41.03125 53.851562 41.597656 L 56.15625 41.601562 C 57.617188 41.601562 58.28125 40.949219 58.402344 40.8125 C 58.425781 40.789062 58.449219 40.765625 58.472656 40.742188 C 59.609375 39.554688 59.613281 37.832031 59.566406 37.160156 "/></g><g clip-rule="nonzero" clip-path="url(#15fd0dcd6c)"><path style=" stroke:none;fill-rule:nonzero;fill:#2f27ce;fill-opacity:1;" d="M 18.386719 36.109375 C 16.339844 36.109375 14.679688 37.769531 14.679688 39.816406 C 14.679688 41.859375 16.34375 43.519531 18.386719 43.519531 C 20.429688 43.519531 22.089844 41.863281 22.089844 39.816406 C 22.089844 37.773438 20.425781 36.109375 18.386719 36.109375 "/></g><g clip-rule="nonzero" clip-path="url(#b95a7ff07d)"><path style=" stroke:none;fill-rule:nonzero;fill:#2f27ce;fill-opacity:1;" d="M 49.359375 36.109375 C 47.3125 36.109375 45.65625 37.769531 45.652344 39.816406 C 45.652344 41.859375 47.316406 43.519531 49.359375 43.519531 C 51.40625 43.519531 53.0625 41.863281 53.0625 39.816406 C 53.0625 37.773438 51.402344 36.109375 49.359375 36.109375 "/></g><g style="fill:#2f27ce;fill-opacity:1;"><g transform="translate(77.48556, 58.239224)"><path style="stroke:none" d="M 12.84375 0 L 2.53125 0 L 2.53125 -29.09375 L 12.921875 -29.09375 C 15.847656 -29.09375 18.367188 -28.507812 20.484375 -27.34375 C 22.609375 -26.1875 24.238281 -24.523438 25.375 -22.359375 C 26.507812 -20.191406 27.078125 -17.597656 27.078125 -14.578125 C 27.078125 -11.546875 26.503906 -8.941406 25.359375 -6.765625 C 24.222656 -4.585938 22.585938 -2.914062 20.453125 -1.75 C 18.328125 -0.582031 15.789062 0 12.84375 0 Z M 8.671875 -5.265625 L 12.578125 -5.265625 C 15.316406 -5.265625 17.394531 -6.003906 18.8125 -7.484375 C 20.226562 -8.960938 20.9375 -11.328125 20.9375 -14.578125 C 20.9375 -17.804688 20.226562 -20.15625 18.8125 -21.625 C 17.394531 -23.09375 15.320312 -23.828125 12.59375 -23.828125 L 8.671875 -23.828125 Z M 8.671875 -5.265625 "/></g></g><g style="fill:#2f27ce;fill-opacity:1;"><g transform="translate(105.210141, 58.239224)"><path style="stroke:none" d="M 7.546875 0 L 0.953125 0 L 11 -29.09375 L 18.921875 -29.09375 L 28.953125 0 L 22.359375 0 L 20.203125 -6.640625 L 9.703125 -6.640625 Z M 11.265625 -11.4375 L 18.65625 -11.4375 L 15.078125 -22.4375 L 14.84375 -22.4375 Z M 11.265625 -11.4375 "/></g></g><g style="fill:#2f27ce;fill-opacity:1;"><g transform="translate(131.514327, 58.239224)"><path style="stroke:none" d="M 7.78125 -29.09375 L 14.8125 -6.984375 L 15.078125 -6.984375 L 22.125 -29.09375 L 28.953125 -29.09375 L 18.921875 0 L 11 0 L 0.953125 -29.09375 Z M 7.78125 -29.09375 "/></g></g><g style="fill:#2f27ce;fill-opacity:1;"><g transform="translate(161.42624, 58.239224)"><path style="stroke:none" d="M 2.53125 0 L 2.53125 -29.09375 L 14 -29.09375 C 16.207031 -29.09375 18.085938 -28.671875 19.640625 -27.828125 C 21.191406 -26.992188 22.378906 -25.832031 23.203125 -24.34375 C 24.023438 -22.863281 24.4375 -21.160156 24.4375 -19.234375 C 24.4375 -17.296875 24.019531 -15.59375 23.1875 -14.125 C 22.351562 -12.65625 21.144531 -11.503906 19.5625 -10.671875 C 17.988281 -9.847656 16.082031 -9.4375 13.84375 -9.4375 L 8.671875 -9.4375 L 8.671875 0 Z M 8.671875 -14.359375 L 12.859375 -14.359375 C 14.617188 -14.359375 15.929688 -14.8125 16.796875 -15.71875 C 17.660156 -16.625 18.09375 -17.796875 18.09375 -19.234375 C 18.09375 -20.679688 17.660156 -21.847656 16.796875 -22.734375 C 15.929688 -23.617188 14.609375 -24.0625 12.828125 -24.0625 L 8.671875 -24.0625 Z M 8.671875 -14.359375 "/></g></g><g style="fill:#2f27ce;fill-opacity:1;"><g transform="translate(183.966591, 58.239224)"><path style="stroke:none" d="M 7.546875 0 L 0.953125 0 L 11 -29.09375 L 18.921875 -29.09375 L 28.953125 0 L 22.359375 0 L 20.203125 -6.640625 L 9.703125 -6.640625 Z M 11.265625 -11.4375 L 18.65625 -11.4375 L 15.078125 -22.4375 L 14.84375 -22.4375 Z M 11.265625 -11.4375 "/></g></g><g style="fill:#2f27ce;fill-opacity:1;"><g transform="translate(213.878504, 58.239224)"><path style="stroke:none" d="M 2.53125 0 L 2.53125 -29.09375 L 14 -29.09375 C 17.3125 -29.09375 19.878906 -28.226562 21.703125 -26.5 C 23.523438 -24.78125 24.4375 -22.476562 24.4375 -19.59375 C 24.4375 -17.601562 23.992188 -15.898438 23.109375 -14.484375 C 22.222656 -13.078125 20.953125 -12.019531 19.296875 -11.3125 L 25.46875 0 L 18.671875 0 L 13.171875 -10.3125 L 8.671875 -10.3125 L 8.671875 0 Z M 8.671875 -15.25 L 12.859375 -15.25 C 16.347656 -15.25 18.09375 -16.695312 18.09375 -19.59375 C 18.09375 -22.570312 16.335938 -24.0625 12.828125 -24.0625 L 8.671875 -24.0625 Z M 8.671875 -15.25 "/></g></g><g style="fill:#2f27ce;fill-opacity:1;"><g transform="translate(240.125996, 58.239224)"><path style="stroke:none" d="M 2.53125 0 L 2.53125 -29.09375 L 8.671875 -29.09375 L 8.671875 -16.265625 L 9.0625 -16.265625 L 19.53125 -29.09375 L 26.90625 -29.09375 L 16.109375 -16.0625 L 27.03125 0 L 19.671875 0 L 11.703125 -11.953125 L 8.671875 -8.265625 L 8.671875 0 Z M 2.53125 0 "/></g></g></g></svg>