<svg xmlns="http://www.w3.org/2000/svg" xmlns:xlink="http://www.w3.org/1999/xlink" width="152" zoomAndPan="magnify" viewBox="0 0 114 149.999998" height="200" preserveAspectRatio="xMidYMid meet" version="1.2"><defs><clipPath id="c2381de788"><path d="M 11.371094 41.34375 L 102.121094 41.34375 L 102.121094 69.511719 L 11.371094 69.511719 Z M 11.371094 41.34375 "/></clipPath><clipPath id="4d2e75ff02"><path d="M 22 59 L 36 59 L 36 72.84375 L 22 72.84375 Z M 22 59 "/></clipPath><clipPath id="0fd493f98c"><path d="M 77 59 L 91 59 L 91 72.84375 L 77 72.84375 Z M 77 59 "/></clipPath><clipPath id="021edb07d1"><path d="M 13.925781 43.121094 L 99.878906 43.121094 L 99.878906 69.796875 L 13.925781 69.796875 Z M 13.925781 43.121094 "/></clipPath></defs><g id="2055f9539e"><path style=" stroke:none;fill-rule:nonzero;fill:#fbfbfe;fill-opacity:1;" d="M 113.699219 56.675781 C 113.640625 25.324219 88.175781 -0.0507812 56.820312 0.0078125 C 25.46875 0.0703125 0.101562 25.535156 0.15625 56.890625 C 0.175781 67.765625 3.464844 77.785156 8.570312 86.535156 C 20.101562 106.300781 57.105469 149.957031 57.105469 149.957031 C 57.105469 149.957031 94.453125 105.511719 105.820312 85.644531 C 110.714844 77.082031 113.722656 67.25 113.699219 56.675781 Z M 56.84375 13.121094 C 80.964844 13.074219 100.546875 32.585938 100.59375 56.703125 C 100.636719 80.8125 81.128906 100.402344 57.007812 100.449219 C 32.898438 100.492188 13.3125 80.980469 13.265625 56.867188 C 13.21875 32.753906 32.730469 13.164062 56.84375 13.121094 Z M 56.84375 13.121094 "/><g clip-rule="nonzero" clip-path="url(#c2381de788)"><path style=" stroke:none;fill-rule:nonzero;fill:#2f27ce;fill-opacity:1;" d="M 71.707031 52.121094 L 53.257812 52.121094 C 52.96875 52.121094 52.738281 51.886719 52.738281 51.601562 L 52.738281 44.246094 C 52.738281 43.953125 52.980469 43.71875 53.273438 43.726562 C 57.953125 43.882812 62.609375 44.769531 66.566406 47.429688 C 68.488281 48.71875 70.0625 50.40625 71.777344 51.945312 C 71.84375 52.007812 71.800781 52.121094 71.707031 52.121094 Z M 50.039062 51.601562 C 50.039062 51.886719 49.804688 52.121094 49.515625 52.121094 C 47.339844 52.121094 45.445312 52.121094 43.21875 52.121094 C 41.4375 52.121094 39.65625 52.109375 37.878906 51.988281 C 36.21875 51.875 34.421875 51.78125 32.914062 51 C 32.242188 50.652344 31.605469 49.929688 32.199219 49.210938 C 32.207031 49.203125 32.210938 49.195312 32.21875 49.1875 C 36.691406 44.382812 43.34375 43.910156 49.503906 43.738281 C 49.796875 43.730469 50.039062 43.96875 50.039062 44.261719 Z M 102.09375 61.59375 C 102.074219 61.3125 101.84375 61.097656 101.566406 61.09375 C 101.328125 61.09375 101.128906 60.910156 101.128906 60.667969 L 101.128906 60.246094 C 101.128906 58.503906 100.597656 57.75 100.484375 57.605469 C 100.464844 57.582031 100.445312 57.558594 100.429688 57.53125 C 98.078125 54.167969 79.25 51.226562 76.601562 50.828125 C 76.394531 50.796875 76.199219 50.726562 76.023438 50.613281 C 73.46875 49.011719 71 46.972656 68.507812 45.285156 C 66.222656 43.730469 63.183594 42.578125 60.453125 42.105469 C 56.351562 41.390625 52.167969 41.277344 48.011719 41.378906 C 43.910156 41.476562 39.785156 41.503906 35.765625 42.433594 C 31.992188 43.304688 28.601562 45.34375 25.125 47.023438 C 24.109375 47.515625 23.105469 48.023438 22.109375 48.546875 C 21.402344 48.921875 20.699219 49.300781 20.003906 49.695312 C 19.816406 49.800781 19.609375 49.855469 19.394531 49.855469 L 15.824219 49.855469 C 11.859375 49.855469 12.210938 57.246094 12.40625 59.460938 C 12.441406 59.851562 12.292969 60.234375 12.007812 60.503906 C 11.5625 60.914062 11.328125 61.507812 11.378906 62.113281 C 12.011719 69.941406 20.167969 69.503906 21.25 69.410156 C 20.859375 68.417969 20.660156 67.367188 20.660156 66.289062 C 20.660156 65.136719 20.886719 64.015625 21.332031 62.960938 C 21.761719 61.941406 22.378906 61.027344 23.164062 60.242188 C 23.949219 59.457031 24.863281 58.839844 25.882812 58.410156 C 26.9375 57.964844 28.054688 57.738281 29.210938 57.738281 C 30.363281 57.738281 31.484375 57.964844 32.539062 58.410156 C 33.554688 58.839844 34.46875 59.457031 35.253906 60.242188 C 36.039062 61.027344 36.65625 61.941406 37.085938 62.960938 C 37.53125 64.015625 37.757812 65.136719 37.757812 66.289062 C 37.757812 67.367188 37.5625 68.414062 37.171875 69.410156 L 76.078125 69.433594 C 75.683594 68.433594 75.480469 67.375 75.480469 66.289062 C 75.480469 65.136719 75.707031 64.015625 76.152344 62.960938 C 76.585938 61.941406 77.199219 61.027344 77.984375 60.242188 C 78.769531 59.457031 79.683594 58.839844 80.703125 58.410156 C 81.757812 57.964844 82.878906 57.738281 84.03125 57.738281 C 85.183594 57.738281 86.304688 57.964844 87.359375 58.410156 C 88.378906 58.839844 89.292969 59.457031 90.074219 60.242188 C 90.859375 61.027344 91.476562 61.941406 91.90625 62.960938 C 92.355469 64.015625 92.582031 65.136719 92.582031 66.289062 C 92.582031 67.378906 92.378906 68.441406 91.976562 69.445312 L 96.0625 69.445312 C 98.644531 69.445312 99.820312 68.296875 100.039062 68.054688 C 100.078125 68.011719 100.117188 67.96875 100.15625 67.925781 C 102.175781 65.832031 102.179688 62.777344 102.09375 61.59375 "/></g><g clip-rule="nonzero" clip-path="url(#4d2e75ff02)"><path style=" stroke:none;fill-rule:nonzero;fill:#2f27ce;fill-opacity:1;" d="M 29.210938 59.730469 C 25.589844 59.730469 22.652344 62.667969 22.652344 66.289062 C 22.652344 69.902344 25.59375 72.84375 29.210938 72.84375 C 32.832031 72.84375 35.765625 69.910156 35.765625 66.289062 C 35.765625 62.671875 32.824219 59.730469 29.210938 59.730469 "/></g><g clip-rule="nonzero" clip-path="url(#0fd493f98c)"><path style=" stroke:none;fill-rule:nonzero;fill:#2f27ce;fill-opacity:1;" d="M 84.03125 59.730469 C 80.410156 59.730469 77.472656 62.667969 77.472656 66.289062 C 77.472656 69.902344 80.414062 72.84375 84.03125 72.84375 C 87.652344 72.84375 90.585938 69.910156 90.585938 66.289062 C 90.585938 62.671875 87.644531 59.730469 84.03125 59.730469 "/></g><g clip-rule="nonzero" clip-path="url(#021edb07d1)"><path style=" stroke:none;fill-rule:nonzero;fill:#fbfbfe;fill-opacity:1;" d="M 71.074219 53.328125 L 53.597656 53.328125 C 53.324219 53.328125 53.105469 53.105469 53.105469 52.832031 L 53.105469 45.871094 C 53.105469 45.589844 53.335938 45.367188 53.613281 45.375 C 58.042969 45.523438 62.457031 46.363281 66.203125 48.882812 C 68.023438 50.105469 69.515625 51.699219 71.136719 53.160156 C 71.203125 53.21875 71.160156 53.328125 71.074219 53.328125 Z M 50.546875 52.832031 C 50.546875 53.105469 50.328125 53.328125 50.054688 53.328125 C 47.992188 53.328125 46.199219 53.324219 44.089844 53.328125 C 42.402344 53.328125 40.714844 53.316406 39.03125 53.199219 C 37.460938 53.09375 35.753906 53.003906 34.328125 52.265625 C 33.691406 51.933594 33.089844 51.25 33.652344 50.570312 C 33.65625 50.5625 33.664062 50.554688 33.667969 50.550781 C 37.90625 45.996094 44.207031 45.550781 50.039062 45.386719 C 50.316406 45.378906 50.546875 45.605469 50.546875 45.882812 Z M 99.855469 62.296875 C 99.835938 62.035156 99.617188 61.828125 99.351562 61.824219 C 99.125 61.824219 98.941406 61.648438 98.941406 61.421875 L 98.941406 61.023438 C 98.941406 59.371094 98.4375 58.65625 98.328125 58.523438 C 98.308594 58.5 98.292969 58.476562 98.277344 58.453125 C 96.050781 55.265625 78.214844 52.480469 75.707031 52.101562 C 75.511719 52.074219 75.328125 52.003906 75.160156 51.902344 C 72.742188 50.382812 70.402344 48.453125 68.042969 46.851562 C 65.878906 45.378906 63 44.289062 60.414062 43.839844 C 56.527344 43.164062 52.566406 43.054688 48.628906 43.152344 C 44.746094 43.242188 40.835938 43.273438 37.03125 44.152344 C 33.457031 44.976562 30.242188 46.90625 26.949219 48.5 C 25.988281 48.964844 25.039062 49.445312 24.09375 49.941406 C 23.425781 50.296875 22.757812 50.65625 22.097656 51.03125 C 21.925781 51.128906 21.726562 51.183594 21.523438 51.183594 L 18.144531 51.183594 C 14.386719 51.183594 14.71875 58.183594 14.90625 60.277344 C 14.9375 60.648438 14.796875 61.011719 14.527344 61.265625 L 14.527344 61.269531 C 14.105469 61.65625 13.882812 62.21875 13.929688 62.792969 C 14.53125 70.207031 22.253906 69.792969 23.28125 69.703125 C 22.910156 68.761719 22.722656 67.769531 22.722656 66.746094 C 22.722656 65.652344 22.9375 64.59375 23.359375 63.59375 C 23.765625 62.628906 24.351562 61.761719 25.09375 61.019531 C 25.835938 60.277344 26.703125 59.691406 27.667969 59.285156 C 28.667969 58.863281 29.726562 58.648438 30.820312 58.648438 C 31.914062 58.648438 32.972656 58.863281 33.972656 59.285156 C 34.9375 59.691406 35.800781 60.277344 36.546875 61.019531 C 37.289062 61.761719 37.875 62.628906 38.28125 63.59375 C 38.703125 64.59375 38.917969 65.652344 38.917969 66.746094 C 38.917969 67.765625 38.730469 68.761719 38.359375 69.703125 L 75.214844 69.726562 C 74.835938 68.777344 74.644531 67.777344 74.644531 66.746094 C 74.644531 65.652344 74.859375 64.59375 75.285156 63.59375 C 75.691406 62.628906 76.273438 61.761719 77.019531 61.019531 C 77.761719 60.277344 78.628906 59.691406 79.59375 59.285156 C 80.589844 58.863281 81.652344 58.648438 82.746094 58.648438 C 83.835938 58.648438 84.898438 58.863281 85.898438 59.285156 C 86.863281 59.691406 87.726562 60.277344 88.472656 61.019531 C 89.214844 61.761719 89.796875 62.628906 90.207031 63.59375 C 90.628906 64.59375 90.84375 65.652344 90.84375 66.746094 C 90.84375 67.777344 90.652344 68.785156 90.273438 69.734375 L 94.140625 69.738281 C 96.585938 69.738281 97.699219 68.648438 97.90625 68.417969 C 97.941406 68.378906 97.980469 68.339844 98.019531 68.296875 C 99.929688 66.3125 99.9375 63.421875 99.855469 62.296875 "/></g><path style=" stroke:none;fill-rule:nonzero;fill:#fbfbfe;fill-opacity:1;" d="M 30.820312 60.535156 C 27.390625 60.535156 24.609375 63.316406 24.609375 66.746094 C 24.609375 70.171875 27.394531 72.957031 30.820312 72.957031 C 34.25 72.957031 37.03125 70.175781 37.03125 66.746094 C 37.03125 63.320312 34.246094 60.535156 30.820312 60.535156 "/><path style=" stroke:none;fill-rule:nonzero;fill:#fbfbfe;fill-opacity:1;" d="M 82.746094 60.535156 C 79.316406 60.535156 76.535156 63.316406 76.535156 66.746094 C 76.535156 70.171875 79.320312 72.957031 82.746094 72.957031 C 86.175781 72.957031 88.953125 70.175781 88.957031 66.746094 C 88.957031 63.320312 86.167969 60.535156 82.746094 60.535156 "/></g></svg>